<svg id="my-svg" width="100%" xmlns="http://www.w3.org/2000/svg" xmlns:xlink="http://www.w3.org/1999/xlink" viewBox="0 0 882.466796875 450" style="max-width: 882.467px; background-color: white;" role="graphics-document document" aria-roledescription="pie"><style>#my-svg{font-family:"trebuchet ms",verdana,arial,sans-serif;font-size:16px;fill:#333;}@keyframes edge-animation-frame{from{stroke-dashoffset:0;}}@keyframes dash{to{stroke-dashoffset:0;}}#my-svg .edge-animation-slow{stroke-dasharray:9,5!important;stroke-dashoffset:900;animation:dash 50s linear infinite;stroke-linecap:round;}#my-svg .edge-animation-fast{stroke-dasharray:9,5!important;stroke-dashoffset:900;animation:dash 20s linear infinite;stroke-linecap:round;}#my-svg .error-icon{fill:#552222;}#my-svg .error-text{fill:#552222;stroke:#552222;}#my-svg .edge-thickness-normal{stroke-width:1px;}#my-svg .edge-thickness-thick{stroke-width:3.5px;}#my-svg .edge-pattern-solid{stroke-dasharray:0;}#my-svg .edge-thickness-invisible{stroke-width:0;fill:none;}#my-svg .edge-pattern-dashed{stroke-dasharray:3;}#my-svg .edge-pattern-dotted{stroke-dasharray:2;}#my-svg .marker{fill:#333333;stroke:#333333;}#my-svg .marker.cross{stroke:#333333;}#my-svg svg{font-family:"trebuchet ms",verdana,arial,sans-serif;font-size:16px;}#my-svg p{margin:0;}#my-svg .pieCircle{stroke:black;stroke-width:2px;opacity:0.7;}#my-svg .pieOuterCircle{stroke:black;stroke-width:2px;fill:none;}#my-svg .pieTitleText{text-anchor:middle;font-size:25px;fill:black;font-family:"trebuchet ms",verdana,arial,sans-serif;}#my-svg .slice{font-family:"trebuchet ms",verdana,arial,sans-serif;fill:#333;font-size:17px;}#my-svg .legend text{fill:black;font-family:"trebuchet ms",verdana,arial,sans-serif;font-size:17px;}#my-svg :root{--mermaid-font-family:"trebuchet ms",verdana,arial,sans-serif;}</style><g/><g transform="translate(225,225)"><circle cx="0" cy="0" r="186" class="pieOuterCircle"/><path d="M0,-185A185,185,0,0,1,175.945,57.168L0,0Z" fill="#ECECFF" class="pieCircle"/><path d="M175.945,57.168A185,185,0,0,1,-108.74,149.668L0,0Z" fill="#ffffde" class="pieCircle"/><path d="M-108.74,149.668A185,185,0,0,1,-185,0L0,0Z" fill="hsl(80, 100%, 56.2745098039%)" class="pieCircle"/><path d="M-185,0A185,185,0,0,1,-108.74,-149.668L0,0Z" fill="hsl(240, 100%, 86.2745098039%)" class="pieCircle"/><path d="M-108.74,-149.668A185,185,0,0,1,0,-185L0,0Z" fill="hsl(60, 100%, 63.5294117647%)" class="pieCircle"/><text transform="translate(112.25110796952396,-81.55520375558064)" class="slice" style="text-anchor: middle;">30%</text><text transform="translate(42.87610796952391,131.95909163595257)" class="slice" style="text-anchor: middle;">30%</text><text transform="translate(-123.62715523113609,62.99118183886202)" class="slice" style="text-anchor: middle;">15%</text><text transform="translate(-123.627155231136,-62.99118183886221)" class="slice" style="text-anchor: middle;">15%</text><text transform="translate(-42.87610796952386,-131.95909163595257)" class="slice" style="text-anchor: middle;">10%</text><text x="0" y="-200" class="pieTitleText">Tech Stack Distribution</text><g class="legend" transform="translate(216,-55)"><rect width="18" height="18" style="fill: rgb(236, 236, 255); stroke: rgb(236, 236, 255);"/><text x="22" y="14">React 18 + Vite (Frontend)</text></g><g class="legend" transform="translate(216,-33)"><rect width="18" height="18" style="fill: rgb(255, 255, 222); stroke: rgb(255, 255, 222);"/><text x="22" y="14">Fastify + TypeScript (Backend)</text></g><g class="legend" transform="translate(216,-11)"><rect width="18" height="18" style="fill: rgb(181, 255, 32); stroke: rgb(181, 255, 32);"/><text x="22" y="14">Playwright, pixelmatch, pngjs</text></g><g class="legend" transform="translate(216,11)"><rect width="18" height="18" style="fill: rgb(255, 255, 69); stroke: rgb(255, 255, 69);"/><text x="22" y="14">Azure OpenAI</text></g><g class="legend" transform="translate(216,33)"><rect width="18" height="18" style="fill: rgb(185, 185, 255); stroke: rgb(185, 185, 255);"/><text x="22" y="14">Zustand, TanStack Query, TailwindCSS, shadcn-ui</text></g></g></svg>